PathFileType	4	(X/Y/Z)	C:/Users/opensim2020/Desktop/walking_exp_matlab/subject03_walking04_straight_01.trc	
DataRate	CameraRate	NumFrames	NumMarkers	Units	OrigDataRate	OrigDataStartFrame	OrigNumFrames	
100.00	100.00	6	51	mm	100.00	769	265	
Frame#	Time	LFHD			RFHD			LBHD			RBHD			C7			T10			CLAV			STRN			RBAK			LSHO			LUPA			LELB			LFRM			LWRA			LWRB			LFIN			RSHO			RUPA			RELB			RFRM			RWRA			RWRB			RFIN			LASI			RASI			LPSI			RPSI			LTHI			LKNE			LTIB			LANK			LHEE			LTOE			RTHI			RKNE			RTIB			RANK			RHEE			RTOE			*39			*40			*41			*42			*43			*44			*45			*46			*47			*48			*49			*50			
		X1	Y1	Z1	X2	Y2	Z2	X3	Y3	Z3	X4	Y4	Z4	X5	Y5	Z5	X6	Y6	Z6	X7	Y7	Z7	X8	Y8	Z8	X9	Y9	Z9	X10	Y10	Z10	X11	Y11	Z11	X12	Y12	Z12	X13	Y13	Z13	X14	Y14	Z14	X15	Y15	Z15	X16	Y16	Z16	X17	Y17	Z17	X18	Y18	Z18	X19	Y19	Z19	X20	Y20	Z20	X21	Y21	Z21	X22	Y22	Z22	X23	Y23	Z23	X24	Y24	Z24	X25	Y25	Z25	X26	Y26	Z26	X27	Y27	Z27	X28	Y28	Z28	X29	Y29	Z29	X30	Y30	Z30	X31	Y31	Z31	X32	Y32	Z32	X33	Y33	Z33	X34	Y34	Z34	X35	Y35	Z35	X36	Y36	Z36	X37	Y37	Z37	X38	Y38	Z38	X39	Y39	Z39	X40	Y40	Z40	X41	Y41	Z41	X42	Y42	Z42	X43	Y43	Z43	X44	Y44	Z44	X45	Y45	Z45	X46	Y46	Z46	X47	Y47	Z47	X48	Y48	Z48	X49	Y49	Z49	X50	Y50	Z50	X51	Y51	Z51	

34	0.330	-1226.37695	-1058.72034	1621.99792	-1095.79578	-1078.66406	1625.48022	-1241.28699	-1185.03906	1572.95972	-1109.67529	-1199.70947	1576.73499	-1181.36792	-1216.80591	1417.59509	-1185.93579	-1262.97559	1108.43530	-1174.25476	-1095.75366	1338.56604	-1182.72168	-1056.74158	1171.06848	-1090.64075	-1277.52661	1242.68909	-1330.39697	-1129.21191	1381.29041	-1395.69812	-1117.87634	1184.57117	-1414.52356	-1118.12659	1063.48389	-1411.75073	-1077.14417	939.98950	-1378.28784	-1042.37756	826.48199	-1428.51062	-1065.84131	826.97327	-1415.95923	-1038.35925	747.31793	-1017.42249	-1150.22314	1360.38428	-943.65839	-1153.01147	1138.22253	-929.01727	-1137.97656	1026.45715	-924.34125	-1123.41431	890.31409	-959.07410	-1095.99084	793.52106	-913.54663	-1124.53259	790.20795	-923.74176	-1104.25928	718.17944	-1298.29565	-1111.56836	929.10071	-1061.33691	-1109.81787	938.96442	-1249.65320	-1272.51794	960.20026	-1101.60657	-1267.95410	979.12469	-1356.47156	-1139.42712	627.81586	-1337.71362	-1135.20752	446.14597	-1333.82971	-1290.25000	326.17532	-1290.64758	-1449.96277	192.09804	-1252.69983	-1496.05945	205.00861	-1269.83521	-1392.78479	53.92501	-1017.73981	-1171.39722	649.71228	-1054.13379	-1159.01550	470.69080	-1048.88086	-1199.10864	283.35501	-1097.80054	-1216.22192	66.95775	-1148.49280	-1258.57593	34.10551	-1110.51270	-1072.27795	30.56810	-1355.26404	-1153.50940	625.67023																																	 
35	0.340	-1226.19971	-1050.06458	1622.11194	-1095.58069	-1069.70984	1625.94617	-1240.63855	-1176.36292	1573.28040	-1109.04993	-1190.82629	1577.43823	-1180.02332	-1208.59253	1417.94312	-1184.47534	-1255.01184	1109.10376	-1173.53137	-1087.88770	1339.01904	-1181.28149	-1048.91907	1171.37769	-1088.81995	-1269.10095	1243.50195	-1329.60461	-1122.07849	1381.71814	-1395.72278	-1113.55310	1185.02673	-1414.39954	-1113.65955	1063.87817	-1412.58948	-1073.63123	940.00446	-1379.99084	-1039.54639	825.97479	-1430.09937	-1063.66895	826.97656	-1418.61096	-1036.51062	747.13470	-1016.56903	-1141.36230	1361.38049	-942.06378	-1141.55933	1139.35510	-927.21674	-1125.01575	1027.85010	-922.02228	-1109.06628	891.89246	-956.62061	-1081.13892	795.14935	-910.55524	-1109.09778	791.80310	-920.68805	-1088.15552	719.98877	-1296.62109	-1103.43945	930.25031	-1059.88513	-1101.87646	938.82385	-1248.68408	-1264.39807	961.27612	-1100.42102	-1259.89026	979.22620	-1354.69250	-1130.81226	628.83856	-1335.61609	-1116.31714	448.45795	-1329.84534	-1270.03491	324.25256	-1288.48608	-1425.47473	189.14307	-1249.73865	-1473.43005	198.80280	-1266.13281	-1363.06738	53.36227	-1017.63141	-1165.17859	649.29022	-1053.74805	-1155.08887	470.40350	-1048.78210	-1197.08704	283.40649	-1097.60474	-1216.31335	67.48325	-1148.54028	-1258.51074	34.49873	-1110.44446	-1072.20215	30.51181	-1353.18896	-1140.93457	627.14221																																	 
36	0.350	-1226.17859	-1041.46655	1622.16565	-1095.59009	-1060.58667	1626.39771	-1240.04712	-1167.70081	1573.61230	-1108.48169	-1181.95703	1578.15247	-1178.90063	-1200.53821	1418.47327	-1182.91028	-1246.83325	1109.35815	-1173.56982	-1079.35217	1339.78943	-1180.51233	-1040.81470	1171.84363	-1087.04761	-1260.65759	1244.24390	-1328.73914	-1114.82361	1381.95361	-1395.85510	-1109.22266	1185.44263	-1414.38342	-1109.18555	1064.23279	-1413.29431	-1070.08728	939.87152	-1381.79333	-1036.76978	825.42242	-1431.64941	-1061.36768	827.04932	-1421.20581	-1034.66833	746.94543	-1015.70477	-1132.43079	1362.12390	-940.50507	-1130.28625	1140.48340	-925.47968	-1112.18311	1029.28625	-919.63940	-1094.80261	893.50500	-953.96570	-1066.36206	796.75330	-907.71350	-1093.61487	793.62988	-917.26849	-1072.14575	721.83362	-1294.73315	-1095.95313	930.74060	-1058.75342	-1094.02954	938.85077	-1247.77637	-1256.00281	962.19531	-1099.20801	-1251.92932	979.35840	-1352.69995	-1122.84070	629.20172	-1332.25208	-1098.92529	449.62668	-1326.73022	-1249.25305	322.64001	-1283.89905	-1403.02197	182.56529	-1246.54053	-1450.49890	191.22800	-1262.22778	-1332.43262	51.99633	-1016.59833	-1160.19385	649.47986	-1053.24719	-1151.22449	470.16721	-1048.40015	-1195.39868	283.93658	-1097.37305	-1216.29907	67.96116	-1148.65759	-1258.40503	34.96296	-1110.32410	-1072.15466	30.44106																																				 
37	0.360	-1226.19678	-1032.90894	1622.18066	-1095.54016	-1051.62866	1626.71521	-1239.54846	-1159.09009	1573.92810	-1108.00610	-1173.13953	1578.85095	-1177.79187	-1192.42078	1418.86877	-1181.45386	-1238.88330	1109.77905	-1172.20898	-1071.59570	1339.65735	-1179.48938	-1033.01440	1172.08997	-1085.29260	-1252.20313	1244.91296	-1328.01807	-1107.66663	1382.19556	-1395.97705	-1104.88635	1185.74634	-1414.35657	-1104.70593	1064.47522	-1414.13965	-1066.40515	939.86664	-1383.78870	-1033.61694	825.02966	-1433.11194	-1059.14917	827.02820	-1423.88672	-1032.88306	746.81946	-1014.85583	-1123.53870	1362.81262	-938.98779	-1119.02625	1141.66516	-923.61829	-1099.54114	1030.77148	-917.35846	-1080.59216	895.24463	-951.50861	-1051.37000	798.63812	-904.94855	-1078.18896	795.34094	-914.61182	-1056.06958	723.85785	-1292.59216	-1088.68811	931.15283	-1057.62292	-1086.22546	938.59558	-1246.84753	-1247.37097	962.82611	-1098.21680	-1243.81494	979.52423	-1350.45447	-1115.08984	629.48676	-1329.29724	-1081.17419	451.68863	-1323.50952	-1228.45361	320.85913	-1282.02100	-1376.37952	178.32425	-1243.10205	-1426.68237	182.44550	-1258.45300	-1301.39551	50.01269	-1016.35693	-1154.09778	649.06079	-1052.81995	-1147.28772	469.89630	-1048.21838	-1193.37708	284.10101	-1097.39880	-1216.12097	68.31799	-1148.84131	-1258.24500	35.53883	-1110.21094	-1072.05444	30.39104																																				 
38	0.370	-1226.20740	-1024.16064	1622.04651	-1095.56213	-1042.69519	1627.05469	-1239.17932	-1150.50879	1574.19104	-1107.66040	-1164.35107	1579.49634	-1176.71997	-1184.24072	1419.11084	-1179.96997	-1230.79651	1110.05396	-1171.77319	-1063.47913	1339.99805	-1178.77979	-1024.94690	1172.39709	-1083.52649	-1243.73047	1245.44531	-1327.46313	-1100.59167	1382.39111	-1396.22693	-1100.43530	1185.97021	-1414.45801	-1100.11072	1064.63794	-1414.98633	-1062.78638	939.72089	-1385.68347	-1030.51245	824.59198	-1434.58337	-1056.69397	826.93024	-1426.25269	-1030.91748	746.59991	-1014.17554	-1114.74207	1363.61108	-937.57654	-1107.85474	1142.76318	-921.86169	-1086.97083	1032.18359	-915.12646	-1066.35156	896.91980	-949.11597	-1035.90833	800.58191	-902.30322	-1062.80188	797.11279	-911.76196	-1039.96924	725.85205	-1292.03979	-1078.50696	933.30737	-1056.44849	-1077.95972	938.46301	-1246.16443	-1239.01660	963.56396	-1097.25781	-1235.82178	979.73712	-1346.83130	-1097.70593	631.74677	-1326.27148	-1063.80554	453.91174	-1320.19360	-1207.60413	318.92963	-1277.27551	-1352.56580	169.88197	-1239.82166	-1401.75720	172.63499	-1255.05676	-1268.33521	48.45261	-1015.63086	-1148.88550	649.09344	-1052.35986	-1143.34009	469.68753	-1048.07825	-1191.29468	284.30618	-1097.45398	-1215.90283	68.73738	-1148.82996	-1257.93945	35.99611	-1110.08777	-1071.96545	30.32535																																				 
39	0.380	-1226.14148	-1015.40289	1621.74426	-1095.77551	-1033.66882	1627.21375	-1238.82800	-1142.04980	1574.49597	-1107.33228	-1155.68494	1580.18359	-1175.83740	-1176.21655	1419.55261	-1178.50293	-1222.73218	1110.26514	-1171.22717	-1055.45239	1340.13013	-1177.92603	-1016.99524	1172.56738	-1081.72217	-1235.30725	1245.89880	-1327.07117	-1093.54565	1382.49622	-1397.04041	-1096.41553	1186.28271	-1415.12292	-1095.94751	1064.88904	-1416.27527	-1059.21716	939.60571	-1387.45325	-1027.47314	824.02094	-1436.00366	-1054.16919	826.76257	-1428.13708	-1028.66455	746.22888	-1013.58521	-1105.83069	1364.18811	-936.17810	-1096.74438	1143.84717	-920.08118	-1074.53723	1033.57056	-912.98865	-1052.23669	898.60638	-946.70593	-1020.90582	802.52966	-899.85333	-1047.40100	798.93842	-909.10339	-1023.69312	727.70898	-1290.86353	-1070.01196	934.23395	-1055.35376	-1069.99683	938.16254	-1245.59583	-1230.71924	964.20801	-1096.42590	-1227.82239	979.90820	-1342.14490	-1091.23584	629.23541	-1323.09497	-1046.96167	456.18475	-1316.88855	-1186.72314	316.77600	-1273.67822	-1326.47791	162.08430	-1236.00085	-1375.64648	162.22995	-1252.46216	-1234.49536	47.10320	-1015.11371	-1143.13037	648.82001	-1051.96216	-1139.33789	469.45587	-1048.03345	-1189.14075	284.56467	-1097.55029	-1215.64563	69.22389	-1149.07153	-1257.71362	36.74176	-1110.00635	-1071.84180	30.27824																																				 
